<svg xmlns="http://www.w3.org/2000/svg" viewBox="0 0 566.93 566.93"><defs><style>.cls-1{fill:#211915;}.cls-2{fill:#fff;}</style></defs><title>quetzi</title><g id="Cara"><path class="cls-1" d="M189.15,353.84l-4.32.52,11.37-5.53a1.47,1.47,0,0,0-.36-.14c-1.28-.42-5.68-1.76-9.73-2.9l7.57-.29-.19-.15c-1.22-.93-8-5.83-9.12-6.31-27.84-11.75-62-20.94-91.08-8.14-2.75,1.21-5.61,2.82-6.77,5.59s-.19,6.19,1.84,8.46a16.19,16.19,0,0,0,7.84,4.42,38.22,38.22,0,0,0,8.55,1.37c-23.85,6.36-46.11,17.83-63.32,37.48-3.28,3.75-6.5,8.23-6.54,13.55s3.4,10.36,7.69,12.84,9.29,2.83,14,2.37c13.83-1.36,26.33-9,38.54-16.25q6.87-4.05,13.8-7.91c-18.33,14.89-33.31,33.58-41.1,57.34-1.55,4.73-2.76,10.12-.71,15A15.28,15.28,0,0,0,79.26,474c4.92.6,9.65-1,13.84-3.33,12.2-6.66,20.69-18.63,29.09-30.05,8.76-11.89,17.93-23.4,27.31-34.7a76,76,0,0,0-6.09,29.17c0,3,.32,6.28,2.39,8.45s5.59,2.66,8.48,1.72a16.24,16.24,0,0,0,7.21-5.39c5.65-6.82,8.23-15.58,10.86-24,7.07-22.69,16.15-44.66,24.83-66.77l-.22.11C196,349.73,191.61,352.27,189.15,353.84Z"/><path class="cls-1" d="M338.94,152.25c-.47-3-1.3-6.15-3.69-8s-5.93-1.75-8.64-.37a16.34,16.34,0,0,0-6.27,6.47c-4.51,7.62-5.68,16.68-6.94,25.44-3.41,23.52-8.92,46.65-14,69.84l.19-.14c1.21-1,7.66-6.25,8.41-7.22C326.42,214.34,344,183.6,338.94,152.25Z"/><path class="cls-1" d="M292.47,239.17c.68-4.76,1.49-11,1.35-12.28C288.7,179.64,274.27,126,230,97.43c-4.19-2.69-9.09-5.23-14.36-4.49a15.28,15.28,0,0,0-11.58,9.49c-1.83,4.61-1.45,9.6-.29,14.23,3.36,13.49,12.78,24.73,21.7,35.76,9.29,11.48,18.1,23.26,26.65,35.2a75.92,75.92,0,0,0-26.67-13.28c-2.91-.76-6.15-1.28-8.78.17s-4,4.73-3.82,7.77a16.34,16.34,0,0,0,3.4,8.34c5.16,7.19,13,11.91,20.5,16.6,20.15,12.58,39.11,26.93,58.29,40.92a.9.9,0,0,0-.05-.23C294.72,246.79,293.37,242,292.47,239.17Z"/><path class="cls-1" d="M161.72,134.8c-4.18-2.69-9.09-5.23-14.36-4.49s-9.75,4.88-11.58,9.49-1.44,9.6-.29,14.23c3.37,13.49,12.79,24.73,21.71,35.76,24,29.6,44.71,61.19,66.1,92.37a1.56,1.56,0,0,0,.08-.38c.42-2.41,2.35-15.59,2.14-17.52C220.4,217,206,163.34,161.72,134.8Z"/><path class="cls-1" d="M419.15,160.48c1.15-4.64,1.54-9.63-.29-14.24s-6.24-8.74-11.58-9.49-10.18,1.8-14.36,4.5c-44.26,28.53-58.68,82.2-63.8,129.46-.21,1.92,1.72,15.1,2.14,17.51a1.56,1.56,0,0,0,.08.38c21.39-31.17,42.15-62.76,66.1-92.37C406.36,185.2,415.78,174,419.15,160.48Z"/><path class="cls-1" d="M542.36,243.76c-3.21-4.25-8.47-5.92-13.33-7-24.44-5.27-48.12-1.79-70.22,6.51q6.82-4,13.76-7.9c12.39-6.9,25.33-13.81,33.49-25.06,2.8-3.87,5-8.36,5.05-13.31s-2.53-10.44-7.21-13.13-10.11-2.13-15-1.19c-25.65,4.93-46.8,18.35-64.33,35.73a38.8,38.8,0,0,0,3.14-8.07,16.34,16.34,0,0,0,.14-9c-.94-2.89-3.36-5.45-6.37-5.85s-5.81,1.26-8.24,3c-25.73,18.62-35.06,52.76-39,82.73-.16,1.22.66,9.53.84,11.05,0,.16,0,.25,0,.24,1.36-2.12,2.71-4.25,4.07-6.38-1.06,4.06-2.13,8.54-2.41,9.86a2.73,2.73,0,0,0-.07.38c3.52-2.34,7-4.68,10.53-7-.9,1.17-1.81,2.37-2.64,3.47-2.6,1.33-7,3.8-8,4.39l-.21.13c23.46,3.67,47,6.92,70.17,12.28,8.62,2,17.49,4.2,26.22,2.76a16.25,16.25,0,0,0,8.3-3.5c2.28-2,3.64-5.26,2.8-8.19s-3.5-4.81-6.09-6.33a76,76,0,0,0-28.25-9.47c14.49-2.39,29.05-4.5,43.74-6.05,14.1-1.49,28.71-2.78,40.63-9.93,4.09-2.46,7.89-5.72,9.86-10.27A15.32,15.32,0,0,0,542.36,243.76Z"/><path class="cls-1" d="M462.18,350.74a38.22,38.22,0,0,0,8.55-1.37,16.23,16.23,0,0,0,7.84-4.42c2-2.27,3-5.65,1.84-8.46s-4-4.38-6.77-5.59c-29.06-12.8-63.24-3.61-91.08,8.14-1.14.48-7.9,5.38-9.12,6.31l-.19.15,7.57.29c-4.05,1.14-8.45,2.48-9.73,2.9a1.47,1.47,0,0,0-.36.14l11.37,5.53-4.32-.52c-2.46-1.57-6.8-4.11-7.81-4.67l-.22-.11c8.68,22.11,17.76,44.08,24.83,66.77,2.63,8.45,5.21,17.21,10.86,24a16.24,16.24,0,0,0,7.21,5.39c2.89.94,6.38.49,8.48-1.72s2.39-5.44,2.39-8.45a76,76,0,0,0-6.09-29.17c9.38,11.3,18.55,22.81,27.3,34.7,8.41,11.42,16.9,23.39,29.1,30.05,4.19,2.3,8.92,3.93,13.84,3.33a15.28,15.28,0,0,0,12.11-8.8c2.05-4.91.84-10.3-.71-15-7.79-23.76-22.77-42.45-41.11-57.34q6.94,3.87,13.8,7.91c12.22,7.21,24.72,14.89,38.55,16.25,4.75.46,9.74.11,14-2.37s7.73-7.45,7.69-12.84-3.26-9.8-6.54-13.55C508.29,368.57,486,357.1,462.18,350.74Z"/><path class="cls-1" d="M117.32,284.91a76,76,0,0,0-28.25,9.47c-2.59,1.52-5.26,3.45-6.09,6.33s.52,6.17,2.8,8.19a16.25,16.25,0,0,0,8.3,3.5c8.73,1.44,17.6-.76,26.22-2.76,23.15-5.36,46.71-8.61,70.16-12.28a.93.93,0,0,0-.2-.13c-1-.59-5.37-3.06-8-4.39-.83-1.1-1.73-2.3-2.63-3.47,3.51,2.35,7,4.69,10.53,7a2.73,2.73,0,0,0-.07-.38c-.29-1.32-1.35-5.8-2.41-9.86,1.36,2.13,2.71,4.26,4.07,6.38,0,0,0-.08,0-.24.18-1.52,1-9.83.84-11.05-3.91-30-13.24-64.11-39-82.73-2.43-1.76-5.26-3.42-8.24-3s-5.43,3-6.37,5.85a16.25,16.25,0,0,0,.14,9,38.8,38.8,0,0,0,3.14,8.07c-17.53-17.38-38.68-30.8-64.33-35.73-4.88-.94-10.38-1.46-15,1.19S55.8,192.06,55.82,197s2.25,9.44,5,13.31C69,221.58,82,228.49,94.36,235.39q6.94,3.87,13.76,7.9C86,235,62.33,231.51,37.9,236.78c-4.86,1.06-10.12,2.73-13.33,7s-3.45,10.35-1.48,14.9,5.77,7.81,9.86,10.27c11.92,7.15,26.53,8.44,40.63,9.93C88.27,280.41,102.83,282.52,117.32,284.91Z"/><path class="cls-1" d="M424.48,337.82c0-56.58-64.32-102.45-143.68-102.45S137.12,281.24,137.12,337.82a74.77,74.77,0,0,0,1.07,12.55,39.81,39.81,0,0,0-3.65,16.44c0,40.57,64.91,73.46,145,73.46h1.29c1.87,0,3.73,0,5.58-.09l1.52,0h.41c76-2.31,136.17-34.25,136.17-73.32a38.52,38.52,0,0,0-2-12.07A74.06,74.06,0,0,0,424.48,337.82Z"/><path class="cls-2" d="M360.18,369.75h-.25A18.7,18.7,0,0,1,356.49,380a18.39,18.39,0,0,1-8.59,6.24,36,36,0,0,1-5.24,1.4c-1.81.38-3.62.67-5.44.89a42,42,0,0,1-10.85.07,25.2,25.2,0,0,1-5.17-1.19,26.5,26.5,0,0,1-4.75-2.34,109.27,109.27,0,0,1-8.95-6.49A34.63,34.63,0,0,0,297.39,373,35.25,35.25,0,0,0,286,371.61a38.51,38.51,0,0,0-11.26,2,35.74,35.74,0,0,0-10.13,5.24c-3.08,2.23-5.81,4.78-8.74,7a22.78,22.78,0,0,1-4.56,2.93,20.69,20.69,0,0,1-5.17,1.59,32.94,32.94,0,0,1-10.94-.08A32.29,32.29,0,0,1,224.71,387a24.81,24.81,0,0,1-8.26-7.19A26,26,0,0,1,212,369.72l-.26,0c.06.3.13.6.2.9l-.2,0A26.69,26.69,0,0,0,216,381a26,26,0,0,0,8.32,7.56A33.16,33.16,0,0,0,235,392.3a33.66,33.66,0,0,0,11.33.33,22,22,0,0,0,5.53-1.59,24.36,24.36,0,0,0,4.88-3c3-2.24,5.81-4.74,8.82-6.85a33.17,33.17,0,0,1,6.77-3.74,21.4,21.4,0,0,1,3.78,1,26.85,26.85,0,0,1,2.93,1.25,29.51,29.51,0,0,1,2.68,1.69,28.56,28.56,0,0,1,8.23,9.49,22.73,22.73,0,0,1,1.43,2.83l.68,1.43c.21.49.36,1,.56,1.49l1.08,3c.32,1,.68,2.06,1.07,3.08a56.74,56.74,0,0,0,5.86,11.71,27.07,27.07,0,0,0,2.05,2.67,11.42,11.42,0,0,0,2.68,2.35,4.23,4.23,0,0,0,2.08.65,2.9,2.9,0,0,0,2.34-1.07,5.13,5.13,0,0,0,1-1.86,11,11,0,0,0,.39-1.78c.5-4.63-.31-8.93-1.11-13.2s-2-8.44-3.34-12.55c-.67-2.06-1.34-4.11-2.06-6.15-.49-1.31-1-2.64-1.47-3.94,1,.65,1.89,1.34,2.81,2.06a103.61,103.61,0,0,0,9.1,6.74,25.7,25.7,0,0,0,11,3.8,44.37,44.37,0,0,0,11.47-.42c1.87-.28,3.74-.66,5.57-1.1a31.48,31.48,0,0,0,5.47-1.72,19.78,19.78,0,0,0,8.88-7.25,18.36,18.36,0,0,0,2.74-10.26C360.21,370.8,360.21,370.27,360.18,369.75Zm-143.73,11c-.43-.57-.81-1.17-1.19-1.77.25.39.5.77.76,1.15a26,26,0,0,0,8.32,7.56,26.29,26.29,0,0,0,3.79,1.8,25.61,25.61,0,0,1-3.42-1.55A24.81,24.81,0,0,1,216.45,380.73Zm-2.19-3.57,0,.08Zm.47.88c.16.28.32.57.49.84C215.05,378.61,214.89,378.33,214.73,378Zm14,11.65-.5-.18C228.39,389.58,228.56,389.63,228.73,389.69Z"/><path class="cls-2" d="M265.34,361.66a5.8,5.8,0,0,1-3.39-1.41,6.71,6.71,0,0,1-1.5-1.66,8.36,8.36,0,0,1-1.37-1.21,6.58,6.58,0,0,1-1.41-2.46,3.91,3.91,0,0,1,0-2.42,16.9,16.9,0,0,0,1.31,1.63l1.16,1.29a.21.21,0,0,0,.18.09.28.28,0,0,0,.13,0,2,2,0,0,1,1.05-.25,5.83,5.83,0,0,1,3.39,1.41c1.79,1.44,2.64,3.5,1.85,4.48a1.74,1.74,0,0,1-1.38.55Z"/><path class="cls-2" d="M257.76,353.07c.34.46.68.84,1,1.22l.09.1,1.07,1.2a.48.48,0,0,0,.63.09,1.79,1.79,0,0,1,.92-.21,5.53,5.53,0,0,1,3.23,1.35c1.87,1.51,2.45,3.35,1.82,4.13a1.5,1.5,0,0,1-1.19.46,5.59,5.59,0,0,1-3.24-1.35,6.64,6.64,0,0,1-1.44-1.61.62.62,0,0,0-.14-.14,6.65,6.65,0,0,1-1.25-1.1,6.06,6.06,0,0,1-1.35-2.36,4.19,4.19,0,0,1-.16-1.78m-.15-1.08a3.87,3.87,0,0,0-.17,3,6.65,6.65,0,0,0,1.45,2.55,7.19,7.19,0,0,0,1.35,1.18,6.87,6.87,0,0,0,1.55,1.72,6,6,0,0,0,3.55,1.47,2,2,0,0,0,1.58-.64c.89-1.11,0-3.28-1.9-4.84a6,6,0,0,0-3.54-1.46,2.2,2.2,0,0,0-1.18.29l-1.07-1.2a15.73,15.73,0,0,1-1.62-2.07Z"/><path class="cls-2" d="M299.1,360.37a1.74,1.74,0,0,1-1.38-.55c-.79-1,.06-3,1.86-4.48a5.8,5.8,0,0,1,3.39-1.41,2,2,0,0,1,1,.25.2.2,0,0,0,.13,0,.25.25,0,0,0,.19-.09l1.17-1.3a18.35,18.35,0,0,0,1.29-1.62,3.85,3.85,0,0,1,0,2.42,6.42,6.42,0,0,1-1.4,2.46,6.86,6.86,0,0,1-1.3,1.14A7.44,7.44,0,0,1,302.5,359,5.86,5.86,0,0,1,299.1,360.37Z"/><path class="cls-2" d="M306.69,351.79a4.33,4.33,0,0,1-.16,1.77,6.32,6.32,0,0,1-1.36,2.37,7,7,0,0,1-1.25,1.09.62.62,0,0,0-.14.14,6.64,6.64,0,0,1-1.44,1.61,5.59,5.59,0,0,1-3.24,1.35,1.54,1.54,0,0,1-1.19-.45c-.63-.79-.05-2.63,1.82-4.14a5.59,5.59,0,0,1,3.24-1.35,1.68,1.68,0,0,1,.91.22.59.59,0,0,0,.26.07.5.5,0,0,0,.37-.17l1.08-1.2.08-.1c.33-.38.67-.76,1-1.21m.14-1.08a16.27,16.27,0,0,1-1.62,2.06l-1.07,1.2a2.19,2.19,0,0,0-1.17-.29,6,6,0,0,0-3.55,1.46c-1.94,1.57-2.79,3.73-1.9,4.84a2,2,0,0,0,1.58.64,6,6,0,0,0,3.55-1.46,7.08,7.08,0,0,0,1.55-1.73,7.51,7.51,0,0,0,1.35-1.17A6.69,6.69,0,0,0,307,353.7a3.84,3.84,0,0,0-.17-3Z"/><path class="cls-2" d="M310.47,353.68a17.69,17.69,0,0,0-4.21-9.37,15.17,15.17,0,0,0-4.85-3.48,16.57,16.57,0,0,0-5.93-1h-.82a44.11,44.11,0,0,0-5.42.4c-1.89.2-3.81.55-5.66.88l-.61.11c-3.41.66-6.79,1.43-10.43,2.29a67.14,67.14,0,0,1,10.08-3.76,45.9,45.9,0,0,1,12.71-2h.19a17.65,17.65,0,0,1,6.65,1.28,15.7,15.7,0,0,1,2.89,1.87l.42.37a10,10,0,0,1,.83.76l.36.41c.26.29.51.58.75.88A15.52,15.52,0,0,1,310.47,353.68Z"/><path class="cls-2" d="M295.33,338h.18a17.57,17.57,0,0,1,6.55,1.25,16.4,16.4,0,0,1,2.82,1.82l.44.39c.29.25.56.48.79.72l.38.43c.26.29.5.57.73.86a15.08,15.08,0,0,1,2.95,7.54,17,17,0,0,0-3.73-6.9,15.28,15.28,0,0,0-4.95-3.54,16.7,16.7,0,0,0-6-1h-.83a44.62,44.62,0,0,0-5.45.4c-1.9.21-3.82.55-5.69.89l-.6.11c-2.6.5-5.19,1.07-7.89,1.69a71,71,0,0,1,7.66-2.68,45.83,45.83,0,0,1,12.64-2m0-.5a46.61,46.61,0,0,0-12.78,2,64.58,64.58,0,0,0-12.06,4.74c4.2-1,8.36-2,12.53-2.78,2.08-.38,4.16-.77,6.25-1a44.57,44.57,0,0,1,5.39-.4h.82a16.37,16.37,0,0,1,5.83,1,14.93,14.93,0,0,1,4.77,3.42,18.23,18.23,0,0,1,4.36,11.38,16,16,0,0,0-2.82-12.67c-.36-.45-.75-.87-1.13-1.3s-.85-.77-1.28-1.16a15.62,15.62,0,0,0-2.94-1.9,17.68,17.68,0,0,0-6.75-1.3Z"/><circle class="cls-2" cx="375.52" cy="325.58" r="1.93"/><circle class="cls-2" cx="374.55" cy="321.39" r="3.54"/><circle class="cls-2" cx="191.09" cy="317.39" r="1.93"/><path class="cls-1" d="M187.23,287.28c-2.46,3.91-4.22,11.25-4.41,19.71s1.24,15.88,3.51,19.9c2.46-3.91,4.22-11.25,4.41-19.72S189.51,291.3,187.23,287.28Z"/><path class="cls-1" d="M384.12,298.05c-2.46,3.9-4.22,11.24-4.41,19.71s1.23,15.87,3.51,19.89c2.46-3.91,4.22-11.25,4.41-19.71S386.39,302.06,384.12,298.05Z"/><path class="cls-2" d="M187.87,271.65c-20.64,0-37.37,14.42-37.37,32.21s16.73,32.22,37.37,32.22,37.37-14.43,37.37-32.22S208.51,271.65,187.87,271.65Zm2.87,35.52c-.19,8.47-2,15.81-4.41,19.72-2.27-4-3.7-11.43-3.51-19.9s2-15.8,4.41-19.71C189.51,291.3,190.94,298.71,190.74,307.17Z"/><path class="cls-2" d="M378.74,279.83c-20.64,0-37.37,14.42-37.37,32.22s16.73,32.21,37.37,32.21,37.37-14.42,37.37-32.21S399.38,279.83,378.74,279.83Zm8.89,38.11c-.19,8.46-1.95,15.8-4.41,19.71-2.28-4-3.71-11.43-3.51-19.89s2-15.81,4.41-19.71C386.39,302.06,387.82,309.47,387.63,317.94Z"/></g></svg>